/* XPM */
static char *e6681649deca4351bff4741a85046b15V5jBWUWzRg6JaDIX[] = {
/* columns rows colors chars-per-pixel */
"64 64 2 1 ",
"  c black",
". c white",
/* pixels */
"................................................................",
"...                                                          ...",
"..                                                            ..",
".  .                          .  .                          .  .",
".    ..........................  ..........................    .",
".   . ....................            .................... .   .",
".   .. ................                  ................ ..   .",
".   ... ............                        ............ ...   .",
".   .... .........         ..........         ......... ....   .",
".   ..... .......      ..................      ....... .....   .",
".   ...... ....      ......................      .... ......   .",
".   ....... ..     ..........................     .. .......   .",
".   .........     ............................     .........   .",
".   ........    ................................    ........   .",
".   .......    ..................................    .......   .",
".   ......    ..                                ..    ......   .",
".   ......   ..                                  ..   ......   .",
".   .....    ..  .                            .  ..    .....   .",
".   ....    ...    ..........................    ...    ....   .",
".   ....   ....   . ........................ .   ....   ....   .",
".   ...    ....   .. ...................... ..   ....    ...   .",
".   ...   .....   ... .................... ...   .....   ...   .",
".   ...   .....   .... .................. ....   .....   ...   .",
".   ..   ......   ..... ................ .....   ......   ..   .",
".   ..   ......   ...... .............. ......   ......   ..   .",
".   ..   ......   ....... ............ .......   ......   ..   .",
".   .    ......   ........ .......... ........   ......    .   .",
".   .   .......   ......... ........ .........   .......   .   .",
".   .   .......   .......... ...... ..........   .......   .   .",
".   .   .......   ............    ............   .......   ..  .",
".  ..   .......   ...........      ...........   .......       .",
".       .......   ...........  ..  ...........   .......       .",
".       .......   ...........  ..  ...........   .......   ..  .",
".  ..   .......   ...........      ...........   .......   .   .",
".   .   .......   ............    ............   .......   .   .",
".   .   .......   .......... ...... ..........   .......   .   .",
".   .   .......   ......... ........ .........   .......   .   .",
".   .    ......   ........ .......... ........   ......    .   .",
".   ..   ......   ....... ............ .......   ......   ..   .",
".   ..   ......   ...... .............. ......   ......   ..   .",
".   ..   ......   ..... ................ .....   ......   ..   .",
".   ...   .....   .... .................. ....   .....   ...   .",
".   ...   .....   ... .................... ...   .....   ...   .",
".   ...    ....   .. ...................... ..   ....    ...   .",
".   ....   ....   . ........................ .   ....   ....   .",
".   ....    ...    ..........................    ...    ....   .",
".   .....    ..  .                            .  ..    .....   .",
".   ......   ..                                  ..   ......   .",
".   ......    ..                                ..    ......   .",
".   .......    ..................................    .......   .",
".   ........    ................................    ........   .",
".   .........     ............................     .........   .",
".   ....... ..     ..........................     .. .......   .",
".   ...... ....      ......................      .... ......   .",
".   ..... .......      ..................      ....... .....   .",
".   .... .........         ..........         ......... ....   .",
".   ... ............                        ............ ...   .",
".   .. ................                  ................ ..   .",
".   . ....................            .................... .   .",
".    ..........................  ..........................    .",
".  .                          .  .                          .  .",
"..                                                            ..",
"...                                                          ...",
"................................................................"
};
