/* XPM */
static char *_a03ba08df5a4726c77407acdec7a67arL2pTHjBsKGRYr5e[] = {
/* columns rows colors chars-per-pixel */
"64 64 2 1 ",
"  c black",
". c white",
/* pixels */
"................................................................",
"................................................................",
"................................................................",
"................................................................",
"................................................................",
"................................................................",
"................................................................",
"................................................................",
"..........                                            ..........",
".........                                              .........",
"........  .                                          .  ........",
"........   ..........................................   ........",
"........   . .                                    . .   ........",
"........   ....    .    .    .    .    .    .    ....   ........",
"........   . ...  ...  ...  ...  ...  ...  ...  ... .   ........",
"........   .  ....................................  .   ........",
"........   .   ..................................   .   ........",
"........   .   ..................................   .   ........",
"........   .  ....................................  .   ........",
"........   . ...................................... .   ........",
"........   .  ....................................  .   ........",
"........   .   ..................................   .   ........",
"........   .   ..................................   .   ........",
"........   .  ....................................  .   ........",
"........   . ..........   ......................... .   ........",
"........   .  .........   ........................  .   ........",
"........   .   ........   ..........     ........   .   ........",
"........   .   ........   .......................   .   ........",
"........   .  ....................................  .   ........",
"........   . ...................................... .   ........",
"........   .  ....................................  .   ........",
"........   .   ..................................   .   ........",
"........   .   ..................................   .   ........",
"........   .  ....................................  .   ........",
"........   . .........                    ......... .   ........",
"........   .  ........                    ........  .   ........",
"........   .   ........  ..............  ........   .   ........",
"........   .   ........  ..............  ........   .   ........",
"........   .  ..........                ..........  .   ........",
"........   . ............              ............ .   ........",
"........   .  ....................................  .   ........",
"........   .   ..................................   .   ........",
"........   .   ..................................   .   ........",
"........   .  ....................................  .   ........",
"........   . ...................................... .   ........",
"........   .  ....................................  .   ........",
"........   .   ..................................   .   ........",
"........   .   ..................................   .   ........",
"........   .  ....................................  .   ........",
"........   . ...  ...  ...  ...  ...  ...  ...  ... .   ........",
"........   ....    .    .    .    .    .    .    ....   ........",
"........   . .                                    . .   ........",
"........   ..........................................   ........",
"........  .                                          .  ........",
".........                                              .........",
"..........                                            ..........",
"................................................................",
"................................................................",
"................................................................",
"................................................................",
"................................................................",
"................................................................",
"................................................................",
"................................................................"
};
