/* XPM */
static char *ec752e41ab2a45ddfb1be538928dbdf19pjqqTHWz5R8yW8P[] = {
/* columns rows colors chars-per-pixel */
"64 64 2 1 ",
"  c black",
". c white",
/* pixels */
"................................................................",
"..                                                            ..",
".                                                              .",
".  ..........................................................  .",
".  . ...................................................... .  .",
".  .. .................................................... ..  .",
".  ... .................................................. ...  .",
".  .... ................................................ ....  .",
".  ..... . ..   ..   ..   ..   ..   ..   ..   ..   .. . .....  .",
".  ......  ..   ..   ..   ..   ..   ..   ..   ..   ..  ......  .",
".  .....   ..   ..   ..   ..   ..   ..   ..   ..   ..   .....  .",
".  .....   ..   ..   ..   ..   ..   ..   ..   ..   ..   .....  .",
".  .....   ..   ..   ..   ..   ..   ..   ..   ..   ..   .....  .",
".  .....   ..   ..   ..   ..   ..   ..   ..   ..   ..   .....  .",
".  .....   ..   ..   ..   ..   ..   ..   ..   ..   ..   .....  .",
".  .....   ..   ..   ..   ..   ..   ..   ..   ..   ..   .....  .",
".  .....   ..   ..   ..   ..   ..   ..   ..   ..   ..   .....  .",
".  .....   ..   ..   ..   ..   ..   ..   ..   ..   ..   .....  .",
".  .....   ..   ..   ..   ..   ..   ..   ..   ..   ..   .....  .",
".  .....   ..   ..   ..   ..   ..   ..   ..   ..   ..   .....  .",
".  .....   ..   ..   ..   ..   ..   ..   ..   ..   ..   .....  .",
".  .....   ..   ..   ..   ..   ..   ..   ..   ..   ..   .....  .",
".  .....   ..   ..   ..   ..   ..   ..   ..   ..   ..   .....  .",
".  .....   ..   ..   ..   ..   ..   ..   ..   ..   ..   .....  .",
".  .....   ..   ..   ..   ..   ..   ..   ..   ..   ..   .....  .",
".  .....   ..   ..   ..   ..   ..   ..   ..   ..   ..   .....  .",
".  .....   ..   ..   ..   ..   ..   ..   ..   ..   ..   .....  .",
".  .....   ..   ..   ..   ..   ..   ..   ..   ..   ..   .....  .",
".  .....   ..   ..   ..   ..   ..   ..   ..   ..   ..   .....  .",
".  .....   ..   ..   ..   ..   ..   ..   ..   ..   ..   .....  .",
".  .....   ..   ..   ..   ..   ..   ..   ..   ..   ..   .....  .",
".  .....   ..   ..   ..   ..   ..   ..   ..   ..   ..   .....  .",
".  .....   ..   ..   ..   ..   ..   ..   ..   ..   ..   .....  .",
".  .....   ..   ..   ..   ..   ..   ..   ..   ..   ..   .....  .",
".  .....   ..   ..   ..   ..   ..   ..   ..   ..   ..   .....  .",
".  .....   ..   ..   ..   ..   ..   ..   ..   ..   ..   .....  .",
".  .....   ..   ..   ..   ..   ..   ..   ..   ..   ..   .....  .",
".  .....   ..   ..   ..   ..   ..   ..   ..   ..   ..   .....  .",
".  .....   ..   ..   ..   ..   ..   ..   ..   ..   ..   .....  .",
".  .....   ..   ..   ..   ..   ..   ..   ..   ..   ..   .....  .",
".  .....   ..   ..   ..   ..   ..   ..   ..   ..   ..   .....  .",
".  .....   ..   ..   ..   ..   ..   ..   ..   ..   ..   .....  .",
".  .....   ..   ..   ..   ..   ..   ..   ..   ..   ..   .....  .",
".  .....   ..   ..   ..   ..   ..   ..   ..   ..   ..   .....  .",
".  .....   ..   ..   ..   ..   ..   ..   ..   ..   ..   .....  .",
".  .....   ..   ..   ..   ..   ..   ..   ..   ..   ..   .....  .",
".  .....   ..   ..   ..   ..   ..   ..   ..   ..   ..   .....  .",
".  .....   ..   ..   ..   ..   ..   ..   ..   ..   ..   .....  .",
".  .....   ..   ..   ..   ..   ..   ..   ..   ..   ..   .....  .",
".  .....   ..   ..   ..   ..   ..   ..   ..   ..   ..   .....  .",
".  .....   ..   ..   ..   ..   ..   ..   ..   ..   ..   .....  .",
".  .....   ..   ..   ..   ..   ..   ..   ..   ..   ..   .....  .",
".  .....   ..   ..   ..   ..   ..   ..   ..   ..   ..   .....  .",
".  .....   ..   ..   ..   ..   ..   ..   ..   ..   ..   .....  .",
".  ......  ..   ..   ..   ..   ..   ..   ..   ..   ..  ......  .",
".  ..... . ..   ..   ..   ..   ..   ..   ..   ..   .. . .....  .",
".  .... ................................................ ....  .",
".  ... .................................................. ...  .",
".  .. .................................................... ..  .",
".  . ...................................................... .  .",
".  ..........................................................  .",
".                                                              .",
"..                                                            ..",
"................................................................"
};
