/* XPM */
static char *_85c8379fa9449d6e57256c2597ed7cenRMVBwdVQiG6oppH[] = {
/* columns rows colors chars-per-pixel */
"64 64 2 1 ",
"  c black",
". c white",
/* pixels */
"................................................................",
"..                                                            ..",
".                                                              .",
".  .................      ............      .................  .",
".  . ............     ....            ....     ............ .  .",
".  .. ..........    ..                    ..    .......... ..  .",
".  ... .......    ..       ..........       ..    ....... ...  .",
".  .... .....   ..     ....          ....     ..   ..... ....  .",
".  ..... . .         ..                  ..         . . .....  .",
".  ......                                              ......  .",
".  .....    .    .                            .    .    .....  .",
".  .....   .    .                              .    .   .....  .",
".  .....                                                .....  .",
".  ....                                                  ....  .",
".  ...                                                    ...  .",
".  ...      .                                      .      ...  .",
".  ..  .   .                                        .   .  ..  .",
".  .   .                                                .   .  .",
".  .  .                                                  .  .  .",
".  .  .                                                  .  .  .",
".    .                                                    .    .",
".    .                                                    .    .",
".   .                                                      .   .",
".   .  .                                                .  .   .",
".   .  .                ...          ...                .  .   .",
".   .  .                ...          ...                .  .   .",
".  .   .                ...          ...                .   .  .",
".  .  .                                                  .  .  .",
".  .  .                                                  .  .  .",
".  .  .                                                  .  .  .",
".  .  .                                                  .  .  .",
".  .  .                                                  .  .  .",
".  .  .                                                  .  .  .",
".  .  .                                                  .  .  .",
".  .  .                     ........                     .  .  .",
".  .  .                  ..............                  .  .  .",
".  .  .                  ....      ....                  .  .  .",
".  .   .               ....          ....               .   .  .",
".   .  .               ...            ...               .  .   .",
".   .  .              ...              ...              .  .   .",
".   .  .              ..                ..              .  .   .",
".   .                 ..                ..                 .   .",
".    .                                                    .    .",
".    .                                                    .    .",
".  .  .                                                  .  .  .",
".  .  .                                                  .  .  .",
".  .   .                                                .   .  .",
".  ..  .   .                                        .   .  ..  .",
".  ...      .                                      .      ...  .",
".  ...                                                    ...  .",
".  ....                                                  ....  .",
".  .....                                                .....  .",
".  .....   .    .                              .    .   .....  .",
".  .....    .    .                            .    .    .....  .",
".  ......                                              ......  .",
".  ..... . .         ..                  ..         . . .....  .",
".  .... .....   ..     ....          ....     ..   ..... ....  .",
".  ... .......    ..       ..........       ..    ....... ...  .",
".  .. ..........    ..                    ..    .......... ..  .",
".  . ............     ....            ....     ............ .  .",
".  .................      ............      .................  .",
".                                                              .",
"..                                                            ..",
"................................................................"
};
