/* XPM */
static char *db81bf6789ec4c548611806199251271QmEudrbImYcVqtUt[] = {
/* columns rows colors chars-per-pixel */
"64 64 2 1 ",
"  c black",
". c white",
/* pixels */
"................................................................",
"..........................            ..........................",
"......................                    ......................",
"....................      ............      ....................",
".................     ....            ....     .................",
"................    ..                    ..    ................",
"..............    ..       ..........       ..    ..............",
".............   ..     ....          ....     ..   .............",
"............   .     ..                  ..     .   ............",
"...........   .    ..                      ..    .   ...........",
"..........  ..   ..                          ..   ..  ..........",
".........  .    .                              .    .  .........",
"........  .    .                                .    .  ........",
".......   .   .                                  .   .   .......",
"......   .   .                                    .   .   ......",
"......  .   .                                      .   .  ......",
".....  .   .                                        .   .  .....",
"....   .  .                                          .  .   ....",
"....  .   .                                          .   .  ....",
"....  .  .                                            .  .  ....",
"...  .   .                                            .   .  ...",
"...  .  .                                              .  .  ...",
"..  .   .                                              .   .  ..",
"..  .  .                                                .  .  ..",
"..  .  .                ...          ...                .  .  ..",
"..  .  .                ...          ...                .  .  ..",
".  .   .                ...          ...                .   .  .",
".  .  .                                                  .  .  .",
".  .  .                                                  .  .  .",
".  .  .                                                  .  .  .",
".  .  .                                                  .  .  .",
".  .  .                                                  .  .  .",
".  .  .                                                  .  .  .",
".  .  .                                                  .  .  .",
".  .  .                     ........                     .  .  .",
".  .  .                  ..............                  .  .  .",
".  .  .                  ....      ....                  .  .  .",
".  .   .               ....          ....               .   .  .",
"..  .  .               ...            ...               .  .  ..",
"..  .  .              ...              ...              .  .  ..",
"..  .  .              ..                ..              .  .  ..",
"..  .   .             ..                ..             .   .  ..",
"...  .  .                                              .  .  ...",
"...  .   .                                            .   .  ...",
"....  .  .                                            .  .  ....",
"....  .   .                                          .   .  ....",
"....   .  .                                          .  .   ....",
".....  .   .                                        .   .  .....",
"......  .   .                                      .   .  ......",
"......   .   .                                    .   .   ......",
".......   .   .                                  .   .   .......",
"........  .    .                                .    .  ........",
".........  .    .                              .    .  .........",
"..........  ..   ..                          ..   ..  ..........",
"...........   .    ..                      ..    .   ...........",
"............   .     ..                  ..     .   ............",
".............   ..     ....          ....     ..   .............",
"..............    ..       ..........       ..    ..............",
"................    ..                    ..    ................",
".................     ....            ....     .................",
"....................      ............      ....................",
"......................                    ......................",
"..........................            ..........................",
"................................................................"
};
