/* XPM */
static char *bfcb9edaca3649138c76bcaa0c98d7f3W1sghjW9TXSsQHNu[] = {
/* columns rows colors chars-per-pixel */
"64 64 2 1 ",
"  c black",
". c white",
/* pixels */
"................................................................",
"................................................................",
"................................................................",
"................................................................",
"................................................................",
"................................................................",
"................................................................",
"................................................................",
"..........                                            ..........",
".........                                              .........",
"........   . . . . . . . . . . . . . . . . . . . . . .  ........",
"........  .                                             ........",
"........                                             .  ........",
"........  .                                             ........",
"........                                             .  ........",
"........  .     . . . . . . . . . . . . . . . . .       ........",
"........       .                                     .  ........",
"........  .                                     .       ........",
"........       .                                     .  ........",
"........  .         . . . . . . . . . . . . .   .       ........",
"........       .   .                                 .  ........",
"........  .                                 .   .       ........",
"........       .   .                                 .  ........",
"........  .                                 .   .       ........",
"........       .   .                                 .  ........",
"........  .              ...        ...     .   .       ........",
"........       .   .     ...        ...              .  ........",
"........  .              ...        ...     .   .       ........",
"........       .   .                                 .  ........",
"........  .                                 .   .       ........",
"........       .   .                                 .  ........",
"........  .                                 .   .       ........",
"........       .   .                                 .  ........",
"........  .                                 .   .       ........",
"........       .   .    ..            ..             .  ........",
"........  .             ....        ....    .   .       ........",
"........       .   .     ..............              .  ........",
"........  .                ..........       .   .       ........",
"........       .   .                                 .  ........",
"........  .                                 .   .       ........",
"........       .   .                                 .  ........",
"........  .                                 .   .       ........",
"........       .   .                                 .  ........",
"........  .                                 .   .       ........",
"........       .   . . . . . . . . . . . . .         .  ........",
"........  .                                     .       ........",
"........       .                                     .  ........",
"........  .                                     .       ........",
"........       . . . . . . . . . . . . . . . . .     .  ........",
"........  .                                             ........",
"........                                             .  ........",
"........  .                                             ........",
"........                                             .  ........",
"........  . . . . . . . . . . . . . . . . . . . . . .   ........",
".........                                              .........",
"..........                                            ..........",
"................................................................",
"................................................................",
"................................................................",
"................................................................",
"................................................................",
"................................................................",
"................................................................",
"................................................................"
};
