/* XPM */
static char *ed5d30a007484b05999758c57e0c5ec8vGlWbGbofHOiYd43[] = {
/* columns rows colors chars-per-pixel */
"100 75 14 1 ",
"  c None",
". c #252532",
"X c #604D1A",
"o c #7C6016",
"O c #554343",
"+ c #A97E0C",
"@ c #8B6F22",
"# c #27877A",
"$ c #B38356",
"% c #C8A670",
"& c #3FA183",
"* c #F0D7AE",
"= c #8EFCC3",
"- c #BBF8DB",
/* pixels */
"                                                                                                    ",
"                                                                                                    ",
"                                                                                                    ",
"                                                                                                    ",
"                                                                                                    ",
"                                                                                                    ",
"                                                                                                    ",
"                                                                                                    ",
"                                                                                                    ",
"                                                                                                    ",
"                                                                                                    ",
"                                                  .......                                           ",
"                                           .......*******....                                       ",
"                                      .....******************.                                      ",
"                              ........************%%%%%%%*****.                                     ",
"                             .$$$$$$*******%%%%%%%%%%%%%%%%%%**.                                    ",
"                            .$$*******%%%%%%%%%%%%%%%%%%%%%%%$**..                                  ",
"                           .$$*******%%%%%%%%%%%%%%%%%%%%%%%%%%%**.                                 ",
"                          .$***%%%%%%%%%%%%%%%%%%%%%%%%%%%%%%%%%%$$.                                ",
"                         .$$*%%%%%%%%%%%%%%%%%%%%%%%%%%%%%%%%%%%%%$$.                               ",
"                        .$$%%%%%%%%%%%%%%%%%%%%%%%%%%%%%%%%%%%%%%%$$$.                              ",
"                       .$$%%%%%%%%%%%%%%%%%%%%%%%%%%%%%%%%%%%%%%%%%%$$.                             ",
"                       .$%%%%%%%%%%%%%%%%%%%%%%%%%%%%%%%%%%%%%%%%%%%%$$.                            ",
"                       .$%%%%%%%%%%%%%%%%%%%%%%%%%%%%%%%%%%%%%%%%%%%%%$$.                           ",
"                      .@@%%%%%%%%%%%%%%%%%%%%%%%%%%%%%%%%%%%%%%%%%%%%%$$.                           ",
"                      .+@@%%%%%%%%%%%%%%%%%%%%%%%%%%%%%%%%%%%%%%%%%%%%%$.                           ",
"                      .++@@%%%%%%%%%%%%%%%%%%%%%%%%%%%%%%%%%%%%%%%%%%%%%$.                          ",
"                      .@++@@%%%%%%%%%%%%%%%%%%%%%%%%%%%%%%%%%%%%%%%%%%%$$.                          ",
"                      .@@+@@%%%%%%%%%%%%%%%%%%%%%%%%%%%%%%%%%%%%%%%%%$$$$.                          ",
"                      .@$++@@%%%%%%%%%%%%%%%%%%%%%%%%%%%%%%%%%%%%%%%$$XXXX.                         ",
"                      .+$$$+@@%%%%%%%%%%%%%%%%%%%%%%$$$$$$$$$%%$$$$$$Xoooo.                         ",
"                      .+@$$++@@$$%%%%%%%%%%%%$$$$$$$$$$$$$$$$$$$$$XXXooooo.                         ",
"                      .@@$$$+@@@$$%%%%$$$$$$$$$$$$$$$$$@@@@@$$$XXXoooooooo.                         ",
"                      .+@@$$++@@@$$$$$$$$$$$$$$$$$$$@@@@@@@@@@Xooooooooooo.                         ",
"                      .+$@$$$++@@$$$$$$$$$$$$$$$$@@@@@@@@@o@@@@@oooooooooo.                         ",
"                      .+$$$$$$++@@$$$$$$$$$$$@@@@@@@@@@@@@o@@@@@ooooooooooo.                        ",
"                      .+$$$$$$$+@@@@@$$@@@@@@@@@@@@@@@@@@@oo@@@@@oooooooooo.                        ",
"                      .+$$$$$$$++@@@@@@@@@@@@@o@@@@@@@@@@@@o@@@@@@ooooooooo.                        ",
"                     .@+$$$$$@$$+@@@@@@@@@@@@@o@@@@@@@@@@@@@@@@@@@oooooooooo.                       ",
"                     .@+$$$$$$$$++@@@@@@@@@@@@oo@@@@o@@@@@@@@@@@@@@ooooooooo.                       ",
"                   -&.@++$$$$$$$$+@@@@@@@@@@@@@o@@@@o@@@@@o@@@@@@@@@oooooooo.                       ",
"                   -.@-@+$$$@$$$$+@@@@@@@@@@@@@o@@@@oo@@@@oo@@@@@OOOOOOOooooo.                      ",
"                  &-.=@@+$$$$$$$$+@@@@@@@@@@@OO@@@@@oo@@@@oo@@@@O%%%%%%%OOOoo.                      ",
"                  &=.=@@+$$$$$$$++@@@@@@@@@@O$$O@@@@@@@@@@@o@@@O%%%%%%%%%%%Oo.                      ",
"                  &#.=@@+$$+++$$+@@@o@@@@@@@O$$$O@@@@@@@@@@o@@@O%%%%%%%%%%%%..                      ",
"                   &#=@+-$$+@++++@@@o@@OOOOO$$$%$O@@@@@@@@@@@@@O%%%%%%%%%%$$..&                     ",
"                    &#.$-++-@@+@@@@o@@O%%%%%%$%%%%O@@@o@@@@@@@O$@%%%%%%%$$$Xo-#&                    ",
"                     &#.-@=@@@@@@o@o@O%%%%%%%%%%%%O@@@oo@@@@@@O$$@@%%$$$$$Xoo-.#-                   ",
"                      &#=.=...@@@oo@@O%%%%%%%%%%%%O@@@oo@@@@@@O$$$$@@$$$$Xooo-.=&                   ",
"                       &&#####.@@-o@@O@%%%%%%%%$$XoO@ooo@@@@@-O$$$$+@@@@Xoooo=.=&                   ",
"                         &&&&&#.o-o@-$$@@%%%$$$$XooO@oooooo@@-@O-$$+++@@ooooo.#&                    ",
"                              &#.-o=.$$$$@@$$$$XooooOoooooooo-@=O+++++@@oooo.#&                     ",
"                               &#=.=.$$$$++@$$$XooooOoooooooo=.=@..@+@@@-ooo.#&                     ",
"                                &###.$$$$++@@@XoooooOooooo...##..##.@@@o-oo-#&                      ",
"                                 &&#.$$$$$++@@@oooo-Oooo..###&&##&&#....-.=#&                       ",
"                                  &#.$$$$+++@@@@ooo-Oo-.##&&&  &&  &####=#=&                        ",
"                                   &#.$-++++@@@@ooo-o=##&&          &&&&&&&                         ",
"                                    &#.-++-@@@@@oo.=.=&&                                            ",
"                                     &#-+=@@@.....###&                                              ",
"                                      &=.=...#####&&&                                               ",
"                                       &#####&&&&&                                                  ",
"                                        &&&&&                                                       ",
"                                                                                                    ",
"                                                                                                    ",
"                                                                                                    ",
"                                                                                                    ",
"                                                                                                    ",
"                                                                                                    ",
"                                                                                                    ",
"                                                                                                    ",
"                                                                                                    ",
"                                                                                                    ",
"                                                                                                    ",
"                                                                                                    ",
"                                                                                                    "
};
