/* XPM */
static char *_a90d26cc352476ac9a15ed97cad2bf1N5CBfqBA6O1kQdr4[] = {
/* columns rows colors chars-per-pixel */
"64 64 2 1 ",
"  c black",
". c white",
/* pixels */
"................................................................",
"... ... ... ... ... ... ... ...  ... ... ... ... ... ... ... ...",
"..   .   .   .   .   .   .   .    .   .   .   .   .   .   .   ..",
".  .                                                        .  .",
"..   ......................................................   ..",
"... .                                                      . ...",
"..  . . . . . . . . . . . . . . . . . . . . . . . . . . .  .  ..",
".   .  . . . . . . . . . . . . . . . . . . . . . . . . . . .   .",
"..  . . . . . . . . . . . . . . . . . . . . . . . . . . .  .  ..",
"... .  . . . . . . . . . . . . . . . . . . . . . . . . . . . ...",
"..  . . . . . . . . . . . . . . . . . . . . . . . . . . .  .  ..",
".   .  . . . . . . . . . . . . . . . . . . . . . . . . . . .   .",
"..  . . . . . . . . . . . . . . . . . . . . . . . . . . .  .  ..",
"... .  . . . . . . . . . . . . . . . . . . . . . . . . . . . ...",
"..  . . . . . . . . . . . . . . . . . . . . . . . . . . .  .  ..",
".   .  . . . . .                                 . . . . . .   .",
"..  . . . . . .                                   . . . .  .  ..",
"... .  . . . .   .                            .  . . . . . . ...",
"..  . . . . . .    ..........................     . . . .  .  ..",
".   .  . . . .    . ........................ .   . . . . . .   .",
"..  . . . . . .   .. ...................... ..    . . . .  .  ..",
"... .  . . . .    ... .................... ...   . . . . . . ...",
"..  . . . . . .   .... .................. ....    . . . .  .  ..",
".   .  . . . .    ..... ................ .....   . . . . . .   .",
"..  . . . . . .   ...... .............. ......    . . . .  .  ..",
"... .  . . . .    ....... ............ .......   . . . . . . ...",
"..  . . . . . .   ........ .......... ........    . . . .  .  ..",
".   .  . . . .    ......... ........ .........   . . . . . .   .",
"..  . . . . . .   .......... ...... ..........    . . . .  .  ..",
"... .  . . . .    ............    ............   . . . . . . ...",
"..  . . . . . .   ...........      ...........    . . . .  .  ..",
".   .  . . . .    ...........  ..  ...........   . . . . . .   .",
".   . . . . . .   ...........  ..  ...........    . . . .  .   .",
"..  .  . . . .    ...........      ...........   . . . . . .  ..",
"... . . . . . .   ............    ............    . . . .  . ...",
"..  .  . . . .    .......... ...... ..........   . . . . . .  ..",
".   . . . . . .   ......... ........ .........    . . . .  .   .",
"..  .  . . . .    ........ .......... ........   . . . . . .  ..",
"... . . . . . .   ....... ............ .......    . . . .  . ...",
"..  .  . . . .    ...... .............. ......   . . . . . .  ..",
".   . . . . . .   ..... ................ .....    . . . .  .   .",
"..  .  . . . .    .... .................. ....   . . . . . .  ..",
"... . . . . . .   ... .................... ...    . . . .  . ...",
"..  .  . . . .    .. ...................... ..   . . . . . .  ..",
".   . . . . . .   . ........................ .    . . . .  .   .",
"..  .  . . . .     ..........................    . . . . . .  ..",
"... . . . . . .  .                            .   . . . .  . ...",
"..  .  . . . .                                   . . . . . .  ..",
".   . . . . . .                                 . . . . .  .   .",
"..  .  . . . . . . . . . . . . . . . . . . . . . . . . . . .  ..",
"... . . . . . . . . . . . . . . . . . . . . . . . . . . .  . ...",
"..  .  . . . . . . . . . . . . . . . . . . . . . . . . . . .  ..",
".   . . . . . . . . . . . . . . . . . . . . . . . . . . .  .   .",
"..  .  . . . . . . . . . . . . . . . . . . . . . . . . . . .  ..",
"... . . . . . . . . . . . . . . . . . . . . . . . . . . .  . ...",
"..  .  . . . . . . . . . . . . . . . . . . . . . . . . . . .  ..",
".   . . . . . . . . . . . . . . . . . . . . . . . . . . .  .   .",
"..  .  . . . . . . . . . . . . . . . . . . . . . . . . . . .  ..",
"... .                                                      . ...",
"..   ......................................................   ..",
".  .                                                        .  .",
"..   .   .   .   .   .   .   .    .   .   .   .   .   .   .   ..",
"... ... ... ... ... ... ... ...  ... ... ... ... ... ... ... ...",
"................................................................"
};
